<svg xmlns="http://www.w3.org/2000/svg" viewBox="0 0 128 128"><title>icon11.1glyph</title><g id="recipe"><path d="M64.52,47.6a15,15,0,0,0-14.85,13h29.7A15,15,0,0,0,64.52,47.6Z"/><path d="M82.83,64.59H46.21a.74.74,0,0,0-.74.73V67a.74.74,0,0,0,.74.73H82.83a.73.73,0,0,0,.73-.73V65.32A.73.73,0,0,0,82.83,64.59Z"/><path d="M66.48,42.74a1.06,1.06,0,0,0-1.06-1.05H63.61a1,1,0,0,0-1,1.05v.86h3.92Z"/><path d="M39.93,120.39l2.38-2.22a3,3,0,0,1,2-.81,3,3,0,0,1,2,.81l2.38,2.22v-9.12H39.93Z"/><path d="M82.51,7.88A7.94,7.94,0,0,0,76.57,6.4l-41.4,5.7H85.42A7.85,7.85,0,0,0,82.51,7.88Z"/><path d="M96.23,16.1H24.8V99.27a8,8,0,0,0,8,8H96.23a8,8,0,0,0,8-8V24.1A8,8,0,0,0,96.23,16.1ZM87.56,67a4.73,4.73,0,0,1-4.73,4.73H46.21A4.74,4.74,0,0,1,41.47,67V65.32a4.75,4.75,0,0,1,4.17-4.7,19,19,0,0,1,12.92-16V42.74a5.06,5.06,0,0,1,5-5.05h1.81a5.06,5.06,0,0,1,5.06,5.05v1.83a19,19,0,0,1,12.92,16,4.74,4.74,0,0,1,4.16,4.7Z"/></g></svg>